<?xml version="1.0" standalone="no"?>
<!DOCTYPE svg PUBLIC "-//W3C//DTD SVG 20010904//EN"
 "http://www.w3.org/TR/2001/REC-SVG-20010904/DTD/svg10.dtd">
<svg version="1.0" xmlns="http://www.w3.org/2000/svg"
 width="536.000000pt" height="536.000000pt" viewBox="0 0 536.000000 536.000000"
 preserveAspectRatio="xMidYMid meet">
<metadata>
Created by potrace 1.15, written by Peter Selinger 2001-2017
</metadata>
<g transform="translate(0.000000,536.000000) scale(0.100000,-0.100000)"
fill="#000000" stroke="none">
<path d="M289 5123 c-15 -9 -34 -29 -43 -44 -15 -25 -16 -227 -16 -2379 0
-2159 1 -2354 16 -2380 9 -15 29 -35 44 -44 26 -15 221 -16 2380 -16 2159 0
2354 1 2380 16 15 9 35 29 44 44 15 26 16 221 16 2380 0 2159 -1 2354 -16
2380 -9 15 -29 35 -44 44 -26 15 -221 16 -2382 16 -2158 -1 -2355 -2 -2379
-17z m3368 -1240 l-987 -988 -987 988 -988 987 1975 0 1975 0 -988 -987z
m-2170 -2170 l-987 -988 0 1975 0 1975 987 -988 988 -987 -988 -987z m2913
602 l-440 -440 0 960 0 960 438 438 437 437 3 -957 2 -958 -440 -440z m-710
383 l0 -823 -412 412 -413 413 410 410 c225 225 411 410 412 410 2 0 3 -370 3
-822z m-537 -676 l477 -477 -480 -480 -480 -480 -480 480 -480 480 477 477
c263 263 480 478 483 478 3 0 220 -215 483 -478z m1687 -577 l0 -915 -917 0
-918 0 915 915 c503 503 916 915 917 915 2 0 3 -412 3 -915z m-2915 -505 l410
-410 -820 0 -820 0 410 410 c225 226 410 410 410 410 0 0 185 -184 410 -410z"/>
</g>
</svg>
