<svg height='100px' width='100px'  fill="#000000" xmlns="http://www.w3.org/2000/svg" xmlns:xlink="http://www.w3.org/1999/xlink" xmlns:serif="http://www.serif.com/" viewBox="0 0 100 101" version="1.1" xml:space="preserve" style="" x="0px" y="0px" fill-rule="evenodd" clip-rule="evenodd" stroke-linejoin="round" stroke-miterlimit="2"><rect serif:id="Page 70" x="0" y="0.5" width="100" height="100" style="" fill="none"></rect><g><path d="M32.035,31.283c0.156,0.054 0.202,0.058 0.34,0.153c0.051,0.036 0.096,0.08 0.144,0.12l18.212,18.213c0.103,0.122 0.138,0.148 0.206,0.294c0.128,0.274 0.128,0.601 0,0.874c-0.068,0.146 -0.103,0.172 -0.206,0.294l-18.212,18.213c-0.048,0.04 -0.093,0.084 -0.144,0.12c-0.362,0.249 -0.879,0.234 -1.225,-0.037c-0.198,-0.155 -0.335,-0.382 -0.38,-0.628c-0.011,-0.061 -0.011,-0.124 -0.017,-0.186l0,-36.426c0.015,-0.164 0.008,-0.21 0.068,-0.366c0.111,-0.294 0.36,-0.528 0.659,-0.621c0.16,-0.05 0.204,-0.04 0.37,-0.045c0.062,0.01 0.123,0.019 0.185,0.028Zm0.786,34.933l15.717,-15.716l-15.717,-15.716l0,31.432Z"></path><path d="M68.399,31.27c0.06,0.017 0.122,0.028 0.18,0.051c0.409,0.154 0.693,0.584 0.666,1.029c-0.008,0.125 -0.038,0.248 -0.089,0.362c-0.069,0.153 -0.106,0.18 -0.212,0.307l-18.213,18.212c-0.122,0.103 -0.148,0.138 -0.294,0.206c-0.274,0.128 -0.601,0.128 -0.874,0c-0.146,-0.068 -0.172,-0.103 -0.294,-0.206l-18.213,-18.212c-0.04,-0.048 -0.084,-0.093 -0.12,-0.144c-0.248,-0.36 -0.237,-0.875 0.037,-1.225c0.155,-0.198 0.382,-0.335 0.628,-0.38c0.061,-0.011 0.124,-0.011 0.186,-0.017l36.426,0c0.062,0.006 0.124,0.012 0.186,0.017Zm-34.115,2.051l15.716,15.717l15.716,-15.717l-31.432,0Z"></path><path d="M41.161,58.607c0.15,0.055 0.194,0.06 0.326,0.152c0.049,0.035 0.092,0.077 0.138,0.116l9.106,9.106c0.04,0.048 0.085,0.093 0.12,0.144c0.248,0.36 0.238,0.875 -0.037,1.225c-0.155,0.198 -0.381,0.335 -0.628,0.38c-0.061,0.011 -0.124,0.011 -0.186,0.017l-18.213,0c-0.062,-0.006 -0.125,-0.006 -0.186,-0.017c-0.43,-0.079 -0.787,-0.456 -0.84,-0.893c-0.03,-0.249 0.033,-0.506 0.175,-0.712c0.036,-0.051 0.08,-0.096 0.12,-0.144l9.106,-9.106c0.093,-0.077 0.186,-0.155 0.295,-0.206c0.109,-0.051 0.226,-0.082 0.347,-0.093c0.119,-0.01 0.239,0.011 0.357,0.031Zm-6.877,9.072l13.219,0l-6.609,-6.61c-2.204,2.203 -4.407,4.406 -6.61,6.61Z"></path><path d="M59.231,40.367c0.162,0.035 0.208,0.033 0.356,0.111c0.222,0.117 0.397,0.315 0.486,0.549c0.06,0.157 0.052,0.202 0.067,0.367l0,18.212c-0.005,0.062 -0.005,0.125 -0.017,0.187c-0.079,0.432 -0.456,0.787 -0.892,0.84c-0.249,0.03 -0.506,-0.033 -0.712,-0.176c-0.051,-0.035 -0.096,-0.08 -0.144,-0.119l-9.106,-9.107c-0.103,-0.122 -0.138,-0.148 -0.206,-0.294c-0.128,-0.274 -0.128,-0.601 0,-0.874c0.068,-0.146 0.103,-0.172 0.206,-0.294l9.106,-9.107c0.048,-0.039 0.093,-0.084 0.144,-0.119c0.103,-0.072 0.218,-0.123 0.34,-0.153c0.121,-0.03 0.247,-0.027 0.372,-0.023Zm-7.769,10.133l6.61,6.61l0,-13.22c-2.203,2.203 -4.406,4.407 -6.61,6.61Z"></path><path d="M68.337,49.473c0.162,0.035 0.208,0.034 0.356,0.111c0.222,0.117 0.398,0.315 0.486,0.549c0.06,0.157 0.053,0.202 0.068,0.367l0,18.213c-0.014,0.158 -0.008,0.202 -0.063,0.353c-0.103,0.283 -0.334,0.515 -0.618,0.618c-0.151,0.055 -0.195,0.049 -0.353,0.063l-18.213,0c-0.062,-0.006 -0.125,-0.006 -0.186,-0.017c-0.431,-0.079 -0.788,-0.456 -0.841,-0.893c-0.03,-0.249 0.034,-0.506 0.176,-0.712c0.035,-0.051 0.08,-0.096 0.12,-0.144l18.212,-18.212c0.048,-0.04 0.093,-0.085 0.144,-0.12c0.103,-0.071 0.218,-0.123 0.34,-0.153c0.121,-0.03 0.247,-0.026 0.372,-0.023Zm-15.84,18.206l14.682,0l0,-14.682c-4.894,4.894 -9.788,9.788 -14.682,14.682Z"></path><path d="M68.337,31.261c0.162,0.035 0.208,0.033 0.356,0.111c0.222,0.116 0.398,0.314 0.486,0.549c0.06,0.156 0.053,0.202 0.068,0.366l0,18.213c-0.005,0.054 -0.005,0.108 -0.013,0.162c-0.025,0.16 -0.089,0.314 -0.185,0.446c-0.032,0.044 -0.07,0.082 -0.105,0.123l-9.106,9.107c-0.048,0.039 -0.093,0.084 -0.144,0.119c-0.36,0.249 -0.879,0.234 -1.225,-0.037c-0.198,-0.154 -0.335,-0.381 -0.38,-0.627c-0.011,-0.062 -0.011,-0.125 -0.017,-0.187l0,-18.212c0.004,-0.054 0.004,-0.109 0.013,-0.162c0.025,-0.161 0.089,-0.315 0.185,-0.446c0.031,-0.044 0.07,-0.082 0.105,-0.124l9.106,-9.106c0.048,-0.04 0.093,-0.084 0.144,-0.12c0.103,-0.071 0.218,-0.123 0.34,-0.153c0.121,-0.029 0.247,-0.026 0.372,-0.022Zm-8.197,10.561l0,15.288l7.039,-7.038l0,-15.288c-2.347,2.346 -4.693,4.692 -7.039,7.038Z"></path><path d="M50.09,49.47c0.059,0.01 0.12,0.016 0.178,0.031c0.116,0.031 0.226,0.083 0.325,0.152c0.049,0.034 0.092,0.077 0.138,0.116l9.107,9.106c0.102,0.122 0.137,0.148 0.205,0.294c0.128,0.274 0.128,0.601 0,0.874c-0.068,0.146 -0.103,0.172 -0.205,0.295l-9.107,9.106c-0.122,0.102 -0.148,0.138 -0.294,0.206c-0.274,0.127 -0.601,0.127 -0.874,0c-0.146,-0.068 -0.172,-0.104 -0.294,-0.206l-9.107,-9.106c-0.102,-0.123 -0.137,-0.149 -0.205,-0.295c-0.128,-0.273 -0.128,-0.6 0,-0.874c0.068,-0.146 0.103,-0.172 0.205,-0.294l9.107,-9.106c0.046,-0.039 0.089,-0.082 0.138,-0.116c0.099,-0.069 0.209,-0.121 0.325,-0.152c0.116,-0.031 0.238,-0.031 0.358,-0.031Zm-7.734,10.136l7.644,7.644l7.644,-7.644l-7.644,-7.644c-2.548,2.548 -5.096,5.096 -7.644,7.644Z"></path></g></svg>